Coordinates
version=1
nRows=13
nColumns=18
inDegrees=yes

Units are S.I. units (second, meters, Newtons, ...)
Angles are in degrees.

endheader
time	pelvis_tilt	pelvis_list	pelvis_rotation	pelvis_tx	pelvis_ty	pelvis_tz	hip_flexion_r	hip_adduction_r	hip_rotation_r	knee_angle_r	ankle_angle_r	hip_flexion_l	hip_adduction_l	hip_rotation_l	knee_angle_l	ankle_angle_l	lumbar_extension
      0.00000000	     -1.42970686	      1.51819160	      0.69261105	     -1.95484622	      0.86638365	     -0.32441191	    -17.25571369	     -1.62620814	      0.00000000	      8.66776375	     10.21104315	     30.45711770	      2.19512072	      0.00000000	    -29.20738814	      7.74741318	     -5.00000214
      0.01000000	     -1.60658994	      1.15145536	      0.19973367	     -1.94263302	      0.86318289	     -0.32335446	    -17.95863734	     -1.24418574	      0.00000000	      8.86317954	     10.45063261	     30.99970290	      1.48507466	      0.00000000	    -26.17268349	      8.05785055	     -5.00000214
      0.02000000	     -1.72728044	      0.77083897	     -0.30960965	     -1.92999199	      0.86006190	     -0.32229411	    -18.72699638	     -0.85884037	      0.00000000	      9.00289140	     10.71771350	     31.36990386	      0.76524232	      0.00000000	    -23.52221928	      8.30161726	     -5.00000214
      0.03000000	     -1.80941401	      0.43302729	     -0.81216779	     -1.91698244	      0.85708292	     -0.32150744	    -19.52246624	     -0.55538418	      0.00000000	      9.05124655	     11.04609623	     31.59216200	      0.12966612	      0.00000000	    -21.24476104	      8.45508516	     -5.00000214
      0.04000000	     -1.85377627	      0.04560911	     -1.30771628	     -1.90369052	      0.85425395	     -0.32058419	    -20.33498581	     -0.19439646	      0.00000000	      8.99128583	     11.33201866	     31.76889389	     -0.55540545	      0.00000000	    -19.54001069	      8.50817862	     -5.00000214
      0.05000000	     -1.87668944	     -0.34927609	     -1.77697025	     -1.89018829	      0.85165508	     -0.31979757	    -21.13172257	      0.15221641	      0.00000000	      8.81639186	     11.61198230	     31.89199049	     -1.21040685	      0.00000000	    -18.34830099	      8.44166880	     -5.00000214
      0.06000000	     -1.88840972	     -0.78186475	     -2.16649743	     -1.87653792	      0.84919821	     -0.31904551	    -21.92511393	      0.55046461	      0.00000000	      8.56255673	     11.70294608	     32.12001103	     -1.85518476	      0.00000000	    -17.94232051	      8.36675466	     -5.00000214
      0.07000000	     -1.88264442	     -1.16426510	     -2.59413787	     -1.86273426	      0.84717659	     -0.31846490	    -22.59348913	      0.84027994	      0.00000000	      7.99873659	     12.13237924	     32.13682969	     -2.42567942	      0.00000000	    -17.66342335	      7.53394880	     -5.00000214
      0.08000000	     -1.86239809	     -1.56494974	     -2.94457162	     -1.84879110	      0.84541044	     -0.31801052	    -23.24603725	      1.14099398	      0.00000000	      7.34979910	     12.22658808	     32.22682265	     -2.95567154	      0.00000000	    -18.06690149	      6.68611815	     -5.00000214
      0.09000000	     -1.82780719	     -1.95413121	     -3.26176084	     -1.83471286	      0.84401002	     -0.31770185	    -23.81299801	      1.39828481	      0.00000000	      6.48332488	     12.24738673	     32.28970389	     -3.42825611	      0.00000000	    -18.89127823	      5.39635241	     -5.00000214
      0.10000000	     -1.77478607	     -2.32674638	     -3.55153404	     -1.82052564	      0.84298248	     -0.31755795	    -24.27203804	      1.59969654	      0.00000000	      5.37299362	     12.14501326	     32.31353449	     -3.84241183	      0.00000000	    -20.05435113	      3.79174384	     -5.00000214
      0.11000000	     -1.68953723	     -2.69110515	     -3.75729455	     -1.80613883	      0.84237346	     -0.31758179	    -24.61761768	      1.78307408	      0.00000000	      3.95714840	     11.86286680	     32.27597301	     -4.19187557	      0.00000000	    -21.49503556	      2.34084014	     -5.00000214
      0.12000000	     -1.61304557	     -3.01622861	     -4.04036608	     -1.79181256	      0.84220541	     -0.31771484	    -24.76047947	      1.84533666	      0.00000000	      2.25165042	     11.41534152	     32.16751007	     -4.51377196	      0.00000000	    -22.98201794	      0.35586846	     -5.00000214
